<svg width="20" height="19" viewBox="0 0 20 19" fill="none" xmlns="http://www.w3.org/2000/svg">
<path d="M17.1488 0H2.8988C1.58899 0 0.523804 1.06519 0.523804 2.375V16.625C0.523804 17.9348 1.58899 19 2.8988 19H17.1488C18.4586 19 19.5238 17.9348 19.5238 16.625V2.375C19.5238 1.06519 18.4586 0 17.1488 0Z" fill="#1976D2"/>
<path d="M16.5551 9.5H13.5863V7.125C13.5863 6.4695 14.1183 6.53125 14.7738 6.53125H15.9613V3.5625H13.5863C11.6186 3.5625 10.0238 5.15731 10.0238 7.125V9.5H7.6488V12.4688H10.0238V19H13.5863V12.4688H15.3676L16.5551 9.5Z" fill="#FAFAFA"/>
</svg>
