<svg width="60" height="60" viewBox="0 0 60 60" fill="none" xmlns="http://www.w3.org/2000/svg">
<path fill-rule="evenodd" clip-rule="evenodd" d="M56.6463 43.7967C51.6518 53.4231 41.594 60 30 60C13.4315 60 0 46.5685 0 30C0 13.4315 13.4315 0 30 0C46.5685 0 60 13.4315 60 30C60 34.9746 58.7892 39.6663 56.6463 43.7967ZM3 30C3 44.9117 15.0883 57 30 57C40.1933 57 49.3719 51.3034 53.9833 42.4151C55.9562 38.6127 57 34.3846 57 30C57 15.0883 44.9117 3 30 3C15.0883 3 3 15.0883 3 30Z" fill="#313131"/>
<path d="M38 28.2679C39.3333 29.0378 39.3333 30.9623 38 31.7321L26 38.6603C24.6667 39.4301 23 38.4678 23 36.9282L23 23.0718C23 21.5322 24.6667 20.5699 26 21.3397L38 28.2679Z" fill="#313131"/>
</svg>
