<svg width="60" height="60" viewBox="0 0 60 60" fill="none" xmlns="http://www.w3.org/2000/svg">
<path fill-rule="evenodd" clip-rule="evenodd" d="M56.6463 43.7967C51.6518 53.4231 41.594 60 30 60C13.4315 60 0 46.5685 0 30C0 13.4315 13.4315 0 30 0C46.5685 0 60 13.4315 60 30C60 34.9746 58.7892 39.6663 56.6463 43.7967ZM3 30C3 44.9117 15.0883 57 30 57C40.1933 57 49.3719 51.3034 53.9833 42.4151C55.9562 38.6127 57 34.3846 57 30C57 15.0883 44.9117 3 30 3C15.0883 3 3 15.0883 3 30ZM33 23.5C33 22.1193 34.1193 21 35.5 21C36.8807 21 38 22.1193 38 23.5V36.5C38 37.8807 36.8807 39 35.5 39C34.1193 39 33 37.8807 33 36.5V23.5ZM24.5 21C23.1193 21 22 22.1193 22 23.5V36.5C22 37.8807 23.1193 39 24.5 39C25.8807 39 27 37.8807 27 36.5V23.5C27 22.1193 25.8807 21 24.5 21Z" fill="#F57E20"/>
</svg>
