<svg width="24" height="19" viewBox="0 0 24 19" fill="none" xmlns="http://www.w3.org/2000/svg">
<path d="M23.8095 2.24931C22.9347 2.63077 22.0025 2.88362 21.0307 3.00638C22.0305 2.413 22.7935 1.48054 23.1523 0.356615C22.2201 0.909077 21.191 1.29931 20.0942 1.51708C19.2091 0.580231 17.9476 0 16.5715 0C13.9015 0 11.752 2.15431 11.752 4.79531C11.752 5.17531 11.7844 5.54069 11.8638 5.88854C7.85443 5.69415 4.30675 3.78392 1.92349 0.874C1.50741 1.59162 1.26335 2.413 1.26335 3.29723C1.26335 4.95754 2.12344 6.42931 3.40549 7.28138C2.63067 7.26677 1.87056 7.04315 1.2266 6.69092C1.2266 6.70554 1.2266 6.72454 1.2266 6.74354C1.2266 9.07323 2.89826 11.0083 5.09038 11.4541C4.69783 11.5608 4.26999 11.6119 3.82598 11.6119C3.51723 11.6119 3.20554 11.5944 2.91296 11.5301C3.53781 13.4286 5.31092 14.8244 7.41924 14.8697C5.77845 16.1456 3.69513 16.9144 1.43978 16.9144C1.04429 16.9144 0.664966 16.8968 0.285645 16.8486C2.4219 18.2181 4.95365 19 7.68388 19C16.5582 19 21.41 11.6923 21.41 5.358C21.41 5.14608 21.4027 4.94146 21.3924 4.73831C22.3495 4.06308 23.1537 3.21977 23.8095 2.24931Z" fill="#03A9F4"/>
</svg>
