<svg width="19" height="19" viewBox="0 0 19 19" fill="none" xmlns="http://www.w3.org/2000/svg">
<path d="M9.50237 0H9.49763C4.25956 0 0 4.26075 0 9.5C0 11.5781 0.66975 13.5043 1.80856 15.0682L0.624625 18.5974L4.27619 17.4301C5.77838 18.4253 7.57031 19 9.50237 19C14.7404 19 19 14.7381 19 9.5C19 4.26194 14.7404 0 9.50237 0Z" fill="#4CAF50"/>
<path d="M15.0297 13.4153C14.8005 14.0624 13.8909 14.5992 13.1653 14.7559C12.6689 14.8616 12.0205 14.946 9.83792 14.0411C7.0461 12.8845 5.24823 10.0475 5.10811 9.86345C4.97392 9.67939 3.97998 8.36126 3.97998 6.99801C3.97998 5.63476 4.67229 4.97095 4.95136 4.68595C5.18054 4.45201 5.55936 4.34514 5.92273 4.34514C6.04029 4.34514 6.14598 4.35108 6.24098 4.35583C6.52004 4.3677 6.66017 4.38433 6.84423 4.82489C7.07342 5.37708 7.63154 6.74033 7.69804 6.88045C7.76573 7.02058 7.83342 7.21058 7.73842 7.39464C7.64936 7.58464 7.57098 7.66895 7.43086 7.83045C7.29073 7.99195 7.15773 8.11545 7.01761 8.28883C6.88935 8.43964 6.74448 8.60114 6.90598 8.8802C7.06748 9.15333 7.6256 10.0641 8.44735 10.7956C9.50779 11.7397 10.3675 12.0413 10.6751 12.1696C10.9043 12.2646 11.1774 12.242 11.3449 12.0639C11.5574 11.8347 11.8199 11.4547 12.087 11.0806C12.277 10.8123 12.5169 10.779 12.7687 10.874C13.0252 10.9631 14.3825 11.634 14.6615 11.7729C14.9406 11.9131 15.1247 11.9796 15.1924 12.0971C15.2589 12.2147 15.2589 12.7669 15.0297 13.4153Z" fill="#FAFAFA"/>
</svg>
